<?xml version="1.0" standalone="no"?>
<!DOCTYPE svg PUBLIC "-//W3C//DTD SVG 20010904//EN"
 "http://www.w3.org/TR/2001/REC-SVG-20010904/DTD/svg10.dtd">
<svg version="1.0" xmlns="http://www.w3.org/2000/svg"
 width="240.000000pt" height="240.000000pt" viewBox="0 0 240.000000 240.000000"
 preserveAspectRatio="xMidYMid meet">
<metadata>
Created by potrace 1.11, written by Peter Selinger 2001-2013
</metadata>
<g transform="translate(0.000000,240.000000) scale(0.100000,-0.100000)"
fill="#000000" stroke="none">
<path d="M0 1200 l0 -1200 1200 0 1200 0 0 1200 0 1200 -1200 0 -1200 0 0
-1200z m820 430 c0 -5 -5 -10 -11 -10 -5 0 -7 5 -4 10 3 6 8 10 11 10 2 0 4
-4 4 -10z m500 -80 c15 -16 38 -30 49 -30 23 0 71 -41 71 -61 0 -6 14 -24 30
-39 17 -15 30 -35 30 -44 0 -9 5 -16 10 -16 6 0 10 -13 10 -30 0 -23 -4 -30
-20 -30 -11 0 -20 -4 -20 -10 0 -6 -27 -10 -60 -10 -33 0 -60 -2 -60 -5 0 -15
52 -55 70 -55 12 0 39 18 60 40 21 22 45 40 54 40 8 0 27 -17 41 -37 19 -29
25 -50 25 -91 0 -53 -1 -55 -62 -113 -35 -32 -69 -59 -75 -59 -8 0 -13 -13
-13 -30 0 -35 -25 -90 -41 -90 -5 0 -37 -27 -69 -60 -32 -33 -66 -60 -74 -60
-9 0 -16 -9 -16 -20 0 -15 -7 -20 -26 -20 -16 0 -37 -12 -54 -30 -23 -25 -36
-30 -74 -30 -25 0 -46 5 -46 10 0 14 -38 12 -42 -2 -5 -15 -38 13 -38 32 0 15
25 40 40 40 11 0 60 44 60 55 0 3 -22 5 -50 5 -43 0 -50 3 -50 20 0 13 7 20
20 20 11 0 20 5 20 10 0 6 14 10 30 10 17 0 30 5 30 10 0 6 -18 10 -40 10
l-40 0 0 40 c0 22 5 40 10 40 6 0 10 9 10 20 0 16 -7 20 -30 20 -16 0 -30 -4
-30 -10 0 -5 -18 -10 -40 -10 -38 0 -40 2 -40 30 0 17 5 30 10 30 6 0 10 9 10
20 0 11 5 20 10 20 6 0 10 21 10 46 0 47 16 74 44 74 9 0 16 -7 16 -16 0 -15
23 -44 34 -44 3 0 6 9 6 20 0 11 -4 20 -10 20 -5 0 -10 14 -10 30 0 17 3 30 6
30 3 0 23 -18 44 -40 49 -51 90 -56 90 -10 0 17 5 30 10 30 6 0 10 -4 10 -10
0 -5 9 -10 20 -10 13 0 20 7 20 20 0 16 -7 20 -30 20 -16 0 -30 5 -30 10 0 6
-9 10 -20 10 -11 0 -20 5 -20 10 0 6 13 10 29 10 16 0 31 5 33 12 7 21 58 -38
58 -67 0 -14 5 -25 10 -25 6 0 10 14 10 30 0 17 5 30 10 30 6 0 10 9 10 20 0
16 -7 20 -30 20 -16 0 -30 5 -30 10 0 6 -9 10 -20 10 -11 0 -20 5 -20 10 0 6
-18 10 -40 10 -22 0 -40 -4 -40 -10 0 -5 -16 -10 -36 -10 -42 0 -64 -19 -64
-54 0 -22 -4 -26 -30 -26 -21 0 -30 5 -30 16 0 23 -25 44 -54 44 -14 0 -26 5
-26 10 0 6 -9 10 -20 10 -18 0 -20 7 -20 75 0 67 3 79 25 100 13 14 31 25 40
25 8 0 15 5 15 10 0 6 18 10 40 10 22 0 40 5 40 10 0 6 27 10 60 10 33 0 60 4
60 10 0 6 42 10 106 10 105 0 106 0 134 -30z m-460 -460 c0 -5 -9 -10 -20 -10
-11 0 -20 5 -20 10 0 6 9 10 20 10 11 0 20 -4 20 -10z m0 -70 c0 -22 5 -40 10
-40 15 0 12 -29 -4 -46 -20 -19 -26 -18 -26 5 0 11 6 21 13 24 8 3 4 12 -13
27 -17 15 -21 24 -12 27 6 3 12 13 12 24 0 10 5 19 10 19 6 0 10 -18 10 -40z"/>
<path d="M1420 1330 c0 -23 4 -30 20 -30 16 0 20 7 20 30 0 23 -4 30 -20 30
-16 0 -20 -7 -20 -30z"/>
<path d="M1413 1125 c-20 -22 -16 -45 7 -45 16 0 20 7 20 30 0 33 -8 37 -27
15z"/>
<path d="M1020 1110 c0 -5 5 -10 10 -10 6 0 10 5 10 10 0 6 -4 10 -10 10 -5 0
-10 -4 -10 -10z"/>
<path d="M1120 890 c0 -5 9 -10 20 -10 11 0 20 5 20 10 0 6 -9 10 -20 10 -11
0 -20 -4 -20 -10z"/>
</g>
</svg>
